{"title":"ROH Wrestling 2016 02 13 WEBRip 1080p FriGe -={SPARROW}=-","uid":13547476,"size":712509861,"categoryP":"video","categoryS":"tv_shows","magnet":"?xt=urn:btih:eee0faf4f5694e6464e9df84e18fb3f235bf753e&amp;dn=ROH+Wrestling+2016+02+13+WEBRip+1080p+FriGe+-%3D%7BSPARROW%7D%3D-&amp;tr=udp%3A%2F%2Ftracker.leechers-paradise.org%3A6969&amp;tr=udp%3A%2F%2Fzer0day.ch%3A1337&amp;tr=udp%3A%2F%2Fopen.demonii.com%3A1337&amp;tr=udp%3A%2F%2Ftracker.coppersurfer.tk%3A6969&amp;tr=udp%3A%2F%2Fexodus.desync.com%3A6969","seeders":1,"leechers":0,"uploader":"CenaCme","files":2,"time":1455531150,"description":"ROH.Wrestling.2016.02.13.WEBRip.1080p.FriGe.mp4\r\n\r\nFormat                      : MPEG-4\r\nFormat profile              : Base Media\r\nCodec ID                    : isom\r\nFile size                  : 680 MiB\r\nDuration                    : 50mn 48s\r\nOverall bit rate            : 1 870 Kbps\r\nWriting application        : Lavf55.12.100\r\n\r\nVideo\r\nID                          : 1\r\nFormat                      : AVC\r\nFormat/Info                : Advanced Video Codec\r\nFormat profile              :   \r\nFormat settings, CABAC      : Yes\r\nFormat settings, ReFrames  : 4 frames\r\nCodec ID                    : avc1\r\nCodec ID/Info              : Advanced Video Coding\r\nDuration                    : 50mn 48s\r\nBit rate                    : 1 800 Kbps\r\nWidth                      : 1 920 pixels\r\nHeight                      : 1 080 pixels\r\nDisplay aspect ratio        : 16:9\r\nFrame rate mode            : Constant\r\nFrame rate                  : 29.970 fps\r\nColor space                : YUV\r\nChroma subsampling          : 4:2:0\r\nBit depth                  : 8 bits\r\nScan type                  : Progressive\r\nBits/(Pixel*Frame)          : 0.029\r\nStream size                : 630 MiB (93%)\r\nWriting library            : x264 core 136 r63M 8fcf9de\r\nEncoding settings          : cabac=1 / ref=3 / deblock=1:0:0 / analyse=0x3:0x113 / me=hex / subme=7 / psy=1 / psy_rd=1.00:0.00 / mixed_ref=1 / me_range=16 / chroma_me=1 / trellis=1 / 8x8dct=1 / cqm=0 / deadzone=21,11 / fast_pskip=1 / chroma_qp_offset=-2 / threads=24 / lookahead_threads=4 / sliced_threads=0 / nr=0 / decimate=1 / interlaced=0 / bluray_compat=0 / constrained_intra=0 / bframes=3 / b_pyramid=2 / b_adapt=1 / b_bias=0 / direct=1 / weightb=1 / open_gop=0 / weightp=2 / keyint=149 / keyint_min=14 / scenecut=0 / intra_refresh=0 / rc_lookahead=40 / rc=cbr / mbtree=1 / bitrate=1800 / ratetol=1.0 / qcomp=0.60 / qpmin=0 / qpmax=69 / qpstep=4 / vbv_maxrate=1800 / vbv_bufsize=3600 / nal_hrd=none / ip_ratio=1.40 / aq=1:1.00\r\nLanguage                    : English\r\n\r\nAudio\r\nID                          : 2\r\nFormat                      : AAC\r\nFormat/Info                : Advanced Audio Codec\r\nFormat profile              : LC\r\nCodec ID                    : 40\r\nDuration                    : 50mn 48s\r\nBit rate mode              : Constant\r\nBit rate                    : 128 Kbps\r\nChannel(s)                  : 2 channels\r\nChannel positions          : Front: L R\r\nSampling rate              : 44.1 KHz\r\nCompression mode            : Lossy\r\nStream size                : 46.5 MiB (7%)\r\nLanguage                    : English \r\n\r\n\r\nThumb sheet:\r\n \nhttp://extraimago.com/image/fQp","torrent":{"xt":"urn:btih:eee0faf4f5694e6464e9df84e18fb3f235bf753e","amp;dn":"ROH+Wrestling+2016+02+13+WEBRip+1080p+FriGe+-%3D%7BSPARROW%7D%3D-","amp;tr":["udp%3A%2F%2Ftracker.leechers-paradise.org%3A6969","udp%3A%2F%2Fzer0day.ch%3A1337","udp%3A%2F%2Fopen.demonii.com%3A1337","udp%3A%2F%2Ftracker.coppersurfer.tk%3A6969","udp%3A%2F%2Fexodus.desync.com%3A6969"],"infoHash":"eee0faf4f5694e6464e9df84e18fb3f235bf753e","infoHashBuffer":{"type":"Buffer","data":[238,224,250,244,245,105,78,100,100,233,223,132,225,143,179,242,53,191,117,62]},"announce":[],"urlList":[]}}